<?xml version="1.0" standalone="no"?>
<!DOCTYPE svg PUBLIC "-//W3C//DTD SVG 20010904//EN"
 "http://www.w3.org/TR/2001/REC-SVG-20010904/DTD/svg10.dtd">
<svg version="1.0" xmlns="http://www.w3.org/2000/svg"
 width="700.000000pt" height="700.000000pt" viewBox="0 0 700.000000 700.000000"
 preserveAspectRatio="xMidYMid meet">
<metadata>
Created by potrace 1.11, written by Peter Selinger 2001-2013
</metadata>
<g transform="translate(0.000000,700.000000) scale(0.100000,-0.100000)"
fill="#000000" stroke="none">
<path d="M1205 5815 c-297 -55 -494 -239 -577 -540 -21 -77 -22 -105 -28 -650
-5 -416 -10 -581 -20 -610 -22 -70 -48 -111 -100 -158 -53 -48 -109 -71 -198
-82 l-52 -7 0 -268 0 -268 53 -7 c91 -11 144 -34 201 -86 63 -58 93 -119 106
-221 5 -40 10 -293 10 -563 0 -535 5 -590 63 -733 57 -143 163 -272 280 -341
110 -65 272 -110 400 -111 l57 0 0 254 0 253 -55 7 c-77 9 -138 40 -189 97
-82 91 -79 69 -87 724 -4 375 -10 598 -18 630 -32 141 -71 222 -145 302 l-55
60 49 48 c60 59 113 157 142 262 21 74 22 105 28 673 7 686 3 654 99 750 59
59 128 90 197 90 l34 0 0 255 0 255 -62 -1 c-35 0 -94 -7 -133 -14z"/>
<path d="M5600 5576 l0 -256 34 0 c69 0 138 -31 197 -90 96 -96 92 -64 100
-750 7 -633 8 -650 59 -780 24 -61 77 -145 114 -179 l26 -24 -40 -43 c-60 -65
-111 -178 -141 -309 -7 -32 -14 -258 -18 -635 -8 -661 -5 -637 -88 -730 -50
-56 -111 -87 -188 -96 l-55 -7 0 -255 0 -255 93 6 c345 23 587 220 679 552 21
76 22 106 28 640 7 578 8 594 50 675 41 78 136 142 230 155 25 4 55 8 68 11
l22 4 -2 293 -3 292 -62 7 c-143 16 -240 95 -283 233 -10 29 -15 192 -20 600
-6 535 -7 564 -28 640 -93 335 -333 530 -683 552 l-89 6 0 -257z"/>
<path d="M4898 4533 l-3 -616 -42 65 c-52 80 -156 179 -225 214 -83 42 -176
57 -281 44 -283 -34 -468 -226 -553 -575 -39 -162 -46 -278 -42 -685 5 -393
10 -444 59 -612 77 -264 237 -438 454 -493 86 -22 238 -20 317 5 114 35 213
119 280 236 l33 59 3 -142 3 -143 264 0 265 0 0 1630 0 1630 -265 0 -265 0 -2
-617z m-212 -868 c111 -33 182 -125 204 -265 13 -85 13 -627 -1 -710 -14 -91
-63 -177 -122 -217 -119 -80 -291 -63 -383 39 -44 49 -71 107 -89 196 -20 93
-20 589 -1 683 47 220 204 330 392 274z"/>
<path d="M2317 4240 c-110 -13 -188 -36 -297 -87 -81 -39 -107 -58 -186 -137
-79 -79 -98 -105 -143 -196 -58 -117 -94 -247 -110 -393 -14 -121 -14 -622 -1
-742 29 -266 113 -462 259 -605 118 -115 225 -170 401 -206 116 -23 375 -15
475 15 321 96 518 338 580 711 35 210 29 774 -9 957 -77 364 -299 600 -626
666 -99 20 -247 27 -343 17z m268 -614 c71 -32 107 -66 142 -133 49 -92 55
-145 51 -478 -3 -286 -5 -303 -27 -358 -47 -120 -129 -187 -249 -206 -73 -12
-166 0 -221 29 -87 45 -152 150 -171 275 -13 92 -13 512 1 595 25 161 119 272
252 300 63 13 165 2 222 -24z"/>
</g>
</svg>
